<svg xmlns="http://www.w3.org/2000/svg" height="990.625pt" version="1.1" viewBox="0 0 990.625 990.625" width="990.625pt">
<g id="surface1">
<path d="M 142.75 222.890625 C 250.070312 112.8125 385.710938 49.695312 514.914062 49.695312 C 596.832031 47.144531 676.191406 78.460938 734.300781 136.273438 C 837.84375 242.457031 809.421875 444.359375 670.96875 586.351562 C 632.558594 627.949219 579.34375 652.820312 522.78125 655.589844 C 491.253906 656.621094 460.6875 644.640625 438.261719 622.441406 C 422.632812 602.507812 419.8125 575.382812 431.015625 552.65625 C 432.105469 553.90625 432.914062 555.351562 434.105469 556.53125 C 447.320312 569.453125 465.160156 576.554688 483.636719 576.214844 C 488.402344 576.128906 493.160156 575.640625 497.832031 574.746094 C 536.367188 593.632812 589.847656 580.78125 628.273438 541.398438 C 714.84375 452.617188 730.632812 324.367188 663.453125 255.488281 C 614.484375 206.484375 547.492188 179.839844 478.25 181.835938 C 373.59375 181.835938 264.328125 232.328125 178.441406 320.414062 C -20.671875 524.554688 -58.546875 817.898438 93.976562 974.304688 L 105.035156 985.644531 L 128.679688 962.519531 L 117.621094 951.179688 C -22.503906 807.5625 15.375 534.9375 202.050781 343.417969 C 281.765625 261.660156 382.429688 214.773438 478.234375 214.773438 C 538.5625 212.894531 596.992188 235.933594 639.796875 278.484375 C 694.5625 334.617188 678.789062 442.226562 604.617188 518.265625 C 589.25 534.484375 569.082031 545.332031 547.070312 549.195312 C 547.457031 548.832031 547.882812 548.589844 548.261719 548.210938 C 563.90625 532.9375 573.707031 512.671875 575.96875 490.921875 C 576.273438 486.609375 576.242188 482.273438 575.855469 477.96875 C 607.054688 431.554688 607.21875 377.25 576 345.109375 C 547.421875 316.445312 508.289062 300.835938 467.84375 301.960938 C 402.300781 304.421875 340.453125 332.953125 296.035156 381.210938 C 145.160156 535.894531 116.742188 758.492188 232.695312 877.402344 C 296.953125 941.660156 384.859375 976.582031 475.695312 973.953125 C 613.75 973.953125 758.027344 907.195312 871.503906 790.820312 L 886.078125 775.875 L 862.441406 752.757812 L 847.875 767.699219 C 740.554688 877.742188 604.914062 940.863281 475.703125 940.863281 C 393.773438 943.414062 314.421875 912.101562 256.324219 854.289062 C 152.78125 748.101562 181.203125 546.195312 319.65625 404.210938 C 358.066406 362.597656 411.28125 337.742188 467.84375 334.964844 C 499.382812 333.945312 529.941406 345.957031 552.363281 368.183594 C 568.132812 388.09375 570.992188 415.332031 559.6875 438.089844 C 558.585938 436.789062 557.738281 435.320312 556.519531 434.09375 C 539.605469 417.992188 515.875 411.207031 493 415.921875 C 454.46875 396.878906 400.855469 409.722656 362.378906 449.1875 C 275.789062 537.960938 260.007812 666.214844 327.1875 735.097656 C 376.152344 784.085938 443.144531 810.738281 512.390625 808.746094 C 617.046875 808.746094 726.320312 758.242188 812.195312 670.15625 C 1011.296875 466.070312 1049.175781 172.726562 896.648438 16.320312 L 885.589844 4.980469 L 861.953125 28.066406 L 873.003906 39.410156 C 1013.128906 183.046875 975.25 455.75 788.574219 647.191406 C 708.863281 728.949219 608.195312 775.828125 512.390625 775.828125 C 452.0625 777.714844 393.632812 754.679688 350.835938 712.128906 C 296.070312 655.996094 311.835938 548.390625 386.011719 472.34375 C 401.363281 456.140625 421.527344 445.304688 443.5 441.429688 C 443.140625 441.789062 442.726562 442.035156 442.363281 442.390625 C 426.726562 457.671875 416.917969 477.933594 414.667969 499.6875 C 414.328125 504.175781 414.367188 508.671875 414.773438 513.164062 C 384.398438 558.679688 383.40625 613.5625 414.625 645.511719 C 443.203125 674.164062 482.335938 689.769531 522.792969 688.652344 C 588.328125 686.179688 650.171875 657.65625 694.589844 609.398438 C 845.464844 454.710938 873.886719 232.117188 757.929688 113.210938 C 693.65625 48.964844 605.757812 14.042969 514.917969 16.671875 C 376.875 16.671875 232.578125 83.429688 119.121094 199.808594 L 104.546875 214.667969 L 128.195312 237.78125 Z M 142.75 222.890625 " style=" stroke:none;fill-rule:nonzero;fill:rgb(0%,0%,0%);fill-opacity:1;" />
<path d="M 33.015625 99.0625 L 66.039062 99.0625 L 66.039062 66.039062 L 99.0625 66.039062 L 99.0625 33.015625 L 66.039062 33.015625 L 66.039062 0 L 33.015625 0 L 33.015625 33.015625 L 0 33.015625 L 0 66.039062 L 33.015625 66.039062 Z M 33.015625 99.0625 " style=" stroke:none;fill-rule:nonzero;fill:rgb(0%,0%,0%);fill-opacity:1;" />
<path d="M 33.015625 280.671875 L 66.039062 280.671875 L 66.039062 313.695312 L 33.015625 313.695312 Z M 33.015625 280.671875 " style=" stroke:none;fill-rule:nonzero;fill:rgb(0%,0%,0%);fill-opacity:1;" />
<path d="M 908.078125 990.625 L 908.078125 957.609375 L 941.09375 957.609375 L 941.09375 924.585938 L 908.078125 924.585938 L 908.078125 891.5625 L 875.046875 891.5625 L 875.046875 924.585938 L 842.03125 924.585938 L 842.03125 957.609375 L 875.046875 957.609375 L 875.046875 990.625 Z M 908.078125 990.625 " style=" stroke:none;fill-rule:nonzero;fill:rgb(0%,0%,0%);fill-opacity:1;" />
<path d="M 759.476562 33.015625 L 792.5 33.015625 L 792.5 66.039062 L 759.476562 66.039062 Z M 759.476562 33.015625 " style=" stroke:none;fill-rule:nonzero;fill:rgb(0%,0%,0%);fill-opacity:1;" />
<path d="M 957.609375 676.929688 L 990.625 676.929688 L 990.625 709.953125 L 957.609375 709.953125 Z M 957.609375 676.929688 " style=" stroke:none;fill-rule:nonzero;fill:rgb(0%,0%,0%);fill-opacity:1;" />
<path d="M 214.640625 957.609375 L 247.65625 957.609375 L 247.65625 990.625 L 214.640625 990.625 Z M 214.640625 957.609375 " style=" stroke:none;fill-rule:nonzero;fill:rgb(0%,0%,0%);fill-opacity:1;" />
<path d="M 0 396.25 L 33.015625 396.25 L 33.015625 429.273438 L 0 429.273438 Z M 0 396.25 " style=" stroke:none;fill-rule:nonzero;fill:rgb(0%,0%,0%);fill-opacity:1;" />
<path d="M 247.65625 0 L 280.671875 0 L 280.671875 33.015625 L 247.65625 33.015625 Z M 247.65625 0 " style=" stroke:none;fill-rule:nonzero;fill:rgb(0%,0%,0%);fill-opacity:1;" />
</g>
</svg>