<svg height="682pt" viewBox="-74 -21 682 682.66564" width="682pt" xmlns="http://www.w3.org/2000/svg"><path d="m99.289062 204.027344c3.367188-3.3125 6.894532-6.441406 10.582032-9.386719 4.402344-3.753906 5.015625-10.335937 1.371094-14.832031-3.636719-4.496094-10.203126-5.273438-14.789063-1.742188-4.273437 3.40625-8.359375 7.039063-12.246094 10.878906-2.773437 2.675782-3.886719 6.644532-2.910156 10.367188.976563 3.730469 3.890625 6.648438 7.617187 7.625 3.730469.976562 7.695313-.136719 10.375-2.910156zm0 0"/><path d="m527.019531 169.679688c-24.929687-22.0625-58.226562-32.191407-91.21875-27.734376 15.96875-10.480468 35.695313-13.527343 54.085938-8.363281 5.582031 1.894531 11.640625-1.09375 13.53125-6.667969 1.894531-5.582031-1.089844-11.636718-6.671875-13.53125-27.460938-7.8125-57-2.019531-79.484375 15.570313-2.164063-20.203125-12.242188-38.730469-28.035157-51.515625-2.855468-2.730469-6.980468-3.660156-10.730468-2.417969-3.746094 1.246094-6.5 4.457031-7.160156 8.347657-.65625 3.898437.890624 7.832031 4.023437 10.242187 12.652344 9.972656 20.292969 24.992187 20.917969 41.097656-5.886719-9.210937-14.003906-16.785156-23.59375-22.027343-36.351563-19.925782-83.679688-1.464844-85.671875-.652344-5.320313 2.277344-7.855469 8.382812-5.710938 13.757812 2.148438 5.375 8.1875 8.0625 13.613281 6.050782.394532-.164063 39.871094-15.597657 67.515626-.449219 7.257812 4.113281 13.230468 10.164062 17.253906 17.46875-47.84375-15.347657-92.101563 17.378906-111.019532 40.394531-2.421874 2.945312-3.089843 6.960938-1.75 10.527344 1.339844 3.570312 4.480469 6.152344 8.238282 6.777344 3.757812.625 7.566406-.800782 9.988281-3.746094 2.019531-2.453125 48.003906-57.035156 100.179687-28.289063-8.527343 19.78125-21.789062 32.847657-43.816406 54.496094-12.425781 12.226563-27.898437 27.4375-46.257812 47.726563-32.300782 35.847656-55.210938 88.949218-69.332032 129.488281h-14.9375c1.835938-31.1875 4.394532-122.664063-22.917968-186.382813-10.785156-25.175781-20.503906-44.609375-28.308594-60.226562-13.835938-27.625-22.0625-44.265625-23.828125-65.75 58.394531-10.238282 84.519531 56.214844 85.648437 59.1875 2.148438 5.390625 8.210938 8.078125 13.640626 6.046875 5.433593-2.03125 8.253906-8.03125 6.339843-13.511719-10.476562-27.925781-41.804687-73.289062-92.160156-74.144531 6.203125-5.621094 13.839844-9.410157 22.066406-10.941407 30.882813-5.332031 63.511719 22.007813 63.84375 22.269532 4.484375 3.648437 11.066407 3.050781 14.828125-1.34375 3.757813-4.394532 3.335938-10.984375-.960937-14.855469-1.632813-1.398437-40.460938-34.21875-81.28125-27.097656-10.769531 1.863281-20.898438 6.402343-29.453125 13.199219 5.796875-15.023438 17.882812-26.75 33.066406-32.097657 5.476562-2.183593 8.140625-8.394531 5.953125-13.867187-2.183594-5.46875-8.394531-8.136719-13.867187-5.953125-19.078126 6.996093-34.609376 21.269531-43.1875 39.691406-15.585938-23.917969-41.664063-38.949219-70.175782-40.44921875-5.886718-.01171875-10.679687 4.75390575-10.691406 10.64062475-.015625 5.894531 4.75 10.679688 10.636719 10.695313 19.089843 1.054687 36.785156 10.328125 48.503906 25.425781-29.796875-14.875-64.589844-16.042969-95.316406-3.195313-3.554688 1.464844-6.050781 4.730469-6.523438 8.546876-.476562 3.820312 1.144531 7.59375 4.238281 9.882812 3.089844 2.292969 7.175782 2.742188 10.691407 1.171875 19.304687-7.621094 40.484375-9.132813 60.679687-4.339844-6.171875.503907-12.226562 1.957031-17.949218 4.320313-35.734376 14.96875-46.25 60.585937-46.679688 62.539062-1.269531 5.738282 2.339844 11.425782 8.074219 12.714844.769531.171875 1.554687.257812 2.335937.265625 4.988282.003906 9.316406-3.453125 10.414063-8.320313.074219-.363281 8.636719-36.914062 34.128906-47.539062 11.308594-4.113281 23.757813-3.785156 34.839844.90625-25.367188 12.449219-61.355469 41.425781-68.652344 107.113281-.648437 5.855469 3.574219 11.128907 9.429687 11.773438 5.855469.648437 11.128907-3.574219 11.777344-9.429688 7.210938-64.871093 45.300782-86.96875 64.796875-94.109375 2.648438 23.988282 12.222657 43.160156 25.675781 70.046875 7.679688 15.371094 17.234376 34.488281 27.789063 59.09375 25.597656 59.734375 22.773437 149.703125 21.117187 177.980469h-169.714843c-1.070313-8.808594-1.605469-17.679688-1.601563-26.558594-.078125-46.277344 13.421875-91.5625 38.828125-130.238281 1.277344-2.132813 2.773438-4.265625 4.160157-6.292969l1.707031-2.457031c2.765625-4.042969 2.417969-9.445313-.835938-13.109375-3.253906-3.65625-8.585937-4.628906-12.921875-2.351562-1.621094.78125-2.988281 2-3.953125 3.519531l-1.59375 2.34375c-1.601562 2.242187-3.203125 4.589843-4.589843 6.824219-27.539063 42.148437-42.183594 91.417968-42.132813 141.761718.019531 13.175782 1.019531 26.332032 2.988281 39.359375v.210938c2.785156 18.101562 7.542969 35.84375 14.1875 52.910156.019532.222656.09375.445313.210938.640625.191406.773438.476562 1.53125.855468 2.238281 7.347657 18.761719 16.945313 36.5625 28.585938 53.015625 0 .105469 0 .105469.101562.207032.507813.859374 1.082032 1.679687 1.710938 2.457031.105469 0 .214844.214843.214844.214843 14.097656 19.746094 30.898437 37.410157 49.917968 52.476563h.105469c.878907.769531 1.808594 1.484375 2.773438 2.132813l.109375.105468c94.015625 72.535156 225.121094 72.535156 319.140625 0l.105469-.105468c.96875-.648438 1.894531-1.363282 2.773437-2.132813h.109375c19.019531-15.066406 35.820312-32.730469 49.914062-52.476563 0 0 .109376-.214843.214844-.214843.632813-.777344 1.203125-1.597657 1.710938-2.457031.101562-.101563.101562-.101563.101562-.207032 11.640625-16.453125 21.242188-34.253906 28.589844-53.015625.375-.707031.664062-1.464843.855469-2.238281.117187-.195312.1875-.417969.207031-.640625 6.648438-17.066406 11.402344-34.808594 14.191406-52.910156v-.210938c1.96875-13.027343 2.96875-26.183593 2.988282-39.359375.054687-27.351562-4.269532-54.542968-12.804688-80.53125-1.855469-5.601562-7.894531-8.632812-13.488281-6.777344-5.597657 1.859376-8.632813 7.902344-6.777344 13.496094 7.8125 23.824219 11.769531 48.742188 11.730469 73.8125-.007813 8.871094-.507813 17.738282-1.488282 26.558594h-74.242187c.738281-3.792969 1.09375-7.652344 1.070313-11.519531 0-35.34375-28.65625-63.996094-64-63.996094s-64.003907 28.652344-64.003907 63.996094c-.023437 3.867187.332031 7.726562 1.070313 11.519531h-48.171875c13.601562-37.542969 34.441406-83.964844 62.589843-115.199219 17.921876-19.8125 33.144532-34.78125 45.378907-46.816406 21.472656-21.097656 36.78125-36.148437 47.039062-58.046875 16.171875 13.089844 45.03125 46.3125 30.933594 110.019531-1.089844 5.667969 2.527344 11.179688 8.167969 12.425781 5.636718 1.25 11.25-2.214843 12.648437-7.820312 14.308594-64.488281-10.363281-103.539062-30.34375-123.539062 11.992188-.851563 23.867188 2.859374 33.234375 10.390624 20.710938 18.300782 16.984375 55.65625 16.941406 56.027344-.621093 5.839844 3.59375 11.085938 9.433594 11.734375.394532.054688.789063.078125 1.191406.074219 5.429688-.011719 9.984376-4.097656 10.578126-9.492188.226562-1.972656 5.035156-48.554687-23.910157-74.261718-4.554687-4.023438-9.703125-7.328125-15.253906-9.800782 20.511719 2.105469 39.921875 10.335938 55.6875 23.628907 4.414063 3.539062 10.820313 3.015625 14.605469-1.1875s3.628906-10.628907-.351563-14.644531zm-388.15625 417.199218c-11.007812-6.207031-21.464843-13.339844-31.253906-21.332031h301.222656c-9.789062 7.992187-20.242187 15.125-31.253906 21.332031zm-63.894531-53.121094c-5.789062-6.804687-11.199219-13.929687-16.210938-21.332031h398.925782c-4.945313 7.445313-10.359375 14.574219-16.210938 21.332031zm-34.238281-53.117187c-3.289063-6.949219-6.210938-14.074219-8.746094-21.335937h452.472656c-2.535156 7.261718-5.453125 14.386718-8.746093 21.335937zm0 0"/></svg>