<?xml version="1.0"?>
<svg xmlns="http://www.w3.org/2000/svg" viewBox="0 0 512 512" width="42" height="42"><g id="Out_line" data-name="Out line"><path d="M488,464V432a8.00007,8.00007,0,0,0-6.91943-7.92676l-24-3.27246-2.16114,15.85352L472,438.9834V464Z"/><path d="M262.43115,408.15527A8.00041,8.00041,0,0,0,256,416v32h16V422.65137a234.96689,234.96689,0,0,1,55.46-2.83106L328.54,403.85742A250.82525,250.82525,0,0,0,262.43115,408.15527Z"/><path d="M475.5459,480c-9.05615,0-13.24854-2.90234-18.55664-6.57715C450.92578,469.22461,443.37939,464,429.3252,464c-14.05469,0-21.60108,5.22461-27.665,9.42285C396.35205,477.09766,392.15918,480,383.103,480s-13.24854-2.90234-18.55664-6.57715C358.48291,469.22461,350.937,464,336.88281,464s-21.6001,5.22461-27.66357,9.42285c-5.30811,3.67481-9.5,6.57715-18.55567,6.57715-9.05615,0-13.249-2.90234-18.55712-6.57715-6.064-4.19824-13.61036-9.42285-27.665-9.42285-14.0542,0-21.6001,5.22461-27.66358,9.42285C211.46973,477.09766,207.27734,480,198.22168,480c-9.05615,0-13.249-2.90234-18.55713-6.57715C173.60107,469.22461,166.0542,464,152,464v16c9.05615,0,13.249,2.90234,18.55713,6.57715C176.62061,490.77539,184.16748,496,198.22168,496s21.6001-5.22461,27.66357-9.42285C231.19336,482.90234,235.38574,480,244.44141,480c9.05664,0,13.24951,2.90234,18.55761,6.57715C269.063,490.77539,276.60938,496,290.66357,496c14.05372,0,21.6001-5.22461,27.66309-9.42285C323.63477,482.90234,327.82715,480,336.88281,480s13.248,2.90234,18.55615,6.57715C361.50244,490.77539,369.04883,496,383.103,496s21.60107-5.22461,27.66455-9.42285c5.3081-3.67481,9.501-6.57715,18.55762-6.57715,9.05615,0,13.24853,2.90234,18.55664,6.57715C453.94531,490.77539,461.4917,496,475.5459,496a43.71608,43.71608,0,0,0,15.19287-2.48926l-5.47754-15.0332A28.07141,28.07141,0,0,1,475.5459,480Z"/><path d="M386.34326,274.34277,364.82977,295.8562l-9.60418-11.20483a20.02287,20.02287,0,0,0-32.09522,23.78027l11.32593,17.79761-20.113,20.11352,11.31348,11.31446,17.59936-17.59961,11.553,18.15429a39.97593,39.97593,0,0,0,33.72852,18.52344c.092,0,.18365-.00513.27563-.00586a33.67955,33.67955,0,0,0,1.45124,7.55518l-30.6839,25.56982a8.00182,8.00182,0,0,0-1.12323,1.15039l-.00226-.002L333.13135,442.6582l12.49414,9.99414,18.48907-23.11181,6.29328,9.43994-11.36243,11.3623,11.31348,11.31446L384.793,447.22314l6.47143-1.61792,2.39283,11.96412,15.68945-3.13868-2.54211-12.71045.26379-.06591a72.75166,72.75166,0,0,0,13.63379-4.89991V448h16V426.35278a72.3205,72.3205,0,0,0,20.35779-28.82348c.5321-.55689,1.05316-1.127,1.55041-1.72364l24.06983-28.88281a43.20344,43.20344,0,0,0-5.978-61.23169V304a7.97979,7.97979,0,0,0-.08057-1.13184l-8-56A8.00024,8.00024,0,0,0,460.70215,240h-64v16h13.75366l-5.51489,22.05957A8.00057,8.00057,0,0,0,412.70215,288h8v9.46143a30.4793,30.4793,0,0,0-12.28418,7.5083l-17.37256,17.373a2.47544,2.47544,0,0,1-3.63184-.13867l-12.14013-14.16357,22.3833-22.3833Zm16.84423,151.79-18.956,4.73828L375.34619,417.544,398.678,398.10034A33.78019,33.78019,0,0,0,422.59033,408h9.8656A56.36464,56.36464,0,0,1,403.18749,426.13281Zm67.20118-69.45215L446.31934,385.5625A17.84263,17.84263,0,0,1,432.57666,392h-9.98633a17.90829,17.90829,0,0,1-17.88818-17.88867c0-.26612.01416-.53125.026-.79688a39.91923,39.91923,0,0,0,8.81531-5.34277l6.56476-5.25171,2.93719,2.93726a8.00063,8.00063,0,0,0,11.31348,0l17.37256-17.37305a30.60916,30.60916,0,0,0,5.889-35.03442,27.24263,27.24263,0,0,1,12.76819,43.4309ZM426.94824,256h26.81543l5.88935,41.22437A43.1692,43.1692,0,0,0,449.46094,296H436.70215V280a8.00008,8.00008,0,0,0-8-8h-5.75391Zm-7.21679,60.28418A14.62724,14.62724,0,1,1,440.418,336.96973l-11.71582,11.71679L408.01562,328Zm-31.147,22.77051a18.34241,18.34241,0,0,0,6.81061-1.04785l13.32965,13.32959-5.17639,4.14111a24.00024,24.00024,0,0,1-35.24072-5.85547L336.62891,299.8418a4.023,4.023,0,0,1,6.44824-4.77832l32.188,37.55273A18.52694,18.52694,0,0,0,388.58447,339.05469Z"/><path d="M293.30908,350.96289l5.38184-15.06836-194.58747-69.4956a167.29028,167.29028,0,0,1,6.39386-40.71851l166.40863,37.82007,30.85383,19.28369,8.48046-13.56836L286.56061,250.666,234.11285,108.30786a167.66248,167.66248,0,0,1,33.58936-4.25317L369.29932,259.83691l13.40136-8.74023-104-159.4668-.01684.011a7.94431,7.94431,0,0,0-1.0271-1.2981l-72-72A8.00035,8.00035,0,0,0,200,16C98.542,16,16,98.542,16,200a8.00076,8.00076,0,0,0,2.34326,5.65723l72,72a7.97354,7.97354,0,0,0,2.96906,1.86792l-.00324.009Zm-25.9126-106.03125-151.7207-34.48193a168.85641,168.85641,0,0,1,102.99634-97.76978ZM101.689,202.375,42.05951,142.74609A167.49814,167.49814,0,0,1,58.39294,109.707l60.446,60.44629A183.7519,183.7519,0,0,0,101.689,202.375Zm68.464-83.53589-60.44641-60.446a167.36649,167.36649,0,0,1,38.99316-18.3794l59.42859,59.4292A183.58608,183.58608,0,0,0,170.15308,118.83911Zm83.446-29.926a182.83357,182.83357,0,0,0-28.28113,5.0913L166.64941,35.33545a167.91305,167.91305,0,0,1,30.06836-3.3042ZM96.471,67.7854l60.61871,60.61841a185.63577,185.63577,0,0,0-28.68616,28.68628L67.78522,96.47119A169.48008,169.48008,0,0,1,96.471,67.7854ZM88.91309,253.59961,32.03174,196.71777a167.62528,167.62528,0,0,1,4.75714-36.6145l58.97589,58.97534A182.6957,182.6957,0,0,0,88.91309,253.59961Z"/></g></svg>
