<?xml version="1.0"?>
<svg fill="#ffffff"  xmlns="http://www.w3.org/2000/svg" viewBox="0 0 512 512" width="42" height="42"><g id="Out_line" data-name="Out line"><path d="M262.03906,440.8125l3.92188,15.51172a253.77843,253.77843,0,0,0,132.34082-83.84277A249.67278,249.67278,0,0,0,455.7002,224.38672l-15.98047-.77344a233.78827,233.78827,0,0,1-53.749,138.67285A237.65981,237.65981,0,0,1,262.03906,440.8125Z"/><rect x="16" y="448" width="112" height="16"/><path d="M495.73047,201.93945c-.44238-1.65918-.85938-3.16308-1.334-4.80761H494.396A248.68318,248.68318,0,0,0,406.30371,67.8457,251.79014,251.79014,0,0,0,253.71,16H187.71973A123.85929,123.85929,0,0,0,64,139.71973,76.2893,76.2893,0,0,0,140.28027,216H152a8.00066,8.00066,0,0,0,5.65723-13.65723l-.67578-.67578a10.67559,10.67559,0,0,1,4.959-17.90625,7.99988,7.99988,0,0,0,3.7168-13.418l-14.81055-14.81054a13.75846,13.75846,0,1,1,22.03516-15.88184,62.28821,62.28821,0,0,0,43.78027,33.44043l13.76855,2.75391a8.00043,8.00043,0,0,0,7.96973-12.64453l-11.14746-14.86329a13.42092,13.42092,0,0,1,20.22656-17.543l18.86328,18.86328A8.00066,8.00066,0,0,0,280,144V120.99609a8.99619,8.99619,0,0,1,17.92285-1.11621l2.04785,16.38184a56.491,56.491,0,0,0,42.08887,47.499,7.99955,7.99955,0,0,0,9.78516-9.3291l-2.34278-11.7168a34.96531,34.96531,0,0,1,4.834-25.79394l1.0791,7.55762a56.839,56.839,0,0,0,42.64453,47.28222A8,8,0,0,0,408,184V166.74121a10.6427,10.6427,0,1,1,21.14062,1.749l-5.03222,30.19434a8.00141,8.00141,0,0,0,9.46094,9.16016l23.874-4.77539a40.18737,40.18737,0,0,1,22.55371,2.03906A276,276,0,0,1,204,480H16v16H204A292.00027,292.00027,0,0,0,496,204,8.02042,8.02042,0,0,0,495.73047,201.93945Zm-41.42481-14.55957-12.50878,2.502,3.127-18.76075A26.64323,26.64323,0,1,0,392,166.74121v5.59863a40.8825,40.8825,0,0,1-20.74512-30.124l-3.335-23.34668a8.00049,8.00049,0,0,0-12.35742-5.52539,50.88547,50.88547,0,0,0-22.2998,49.21289,40.39285,40.39285,0,0,1-17.415-28.2793l-2.04786-16.38183A24.99644,24.99644,0,0,0,264,120.99609v3.69043l-5.20605-5.207a29.56832,29.56832,0,0,0-38.457-2.73242,29.42787,29.42787,0,0,0-7.58007,38.67285,46.34749,46.34749,0,0,1-25.56446-22.9248,29.75891,29.75891,0,1,0-47.66015,34.35156l7.27246,7.27246a27.022,27.022,0,0,0-8.34961,25.85352A60.28638,60.28638,0,0,1,80,139.71973,107.84221,107.84221,0,0,1,187.71973,32H253.71A234.51246,234.51246,0,0,1,474.33789,187.04688,56.13164,56.13164,0,0,0,454.30566,187.37988Z"/><path d="M350.19629,365.49121A211.15456,211.15456,0,0,0,408,220c0-4.13574-.12109-8.32812-.36035-12.46191l-15.97266.92382c.22071,3.82715.333,7.709.333,11.53809a195.21638,195.21638,0,0,1-53.43848,134.50879Z"/><rect x="16" y="416" width="120" height="16"/><path d="M318.04688,340.57324a172.34556,172.34556,0,0,0,39.45605-141.92969l-15.76758,2.7129A157.58539,157.58539,0,0,1,344,228a155.9282,155.9282,0,0,1-38.04688,102.09668Z"/><rect x="16" y="384" width="136" height="16"/><rect x="16" y="352" width="160" height="16"/><path d="M290.39551,308.39258a132.0892,132.0892,0,0,0,0-144.78516l-13.373,8.78516a116.08593,116.08593,0,0,1,0,127.21484Z"/><path d="M180.31152,262.39258A17.15235,17.15235,0,0,0,185.15234,296h15.832l6.25366,15.63525-14.39331,28.78663a7.99119,7.99119,0,0,0-.75391,4.70849l-.01074.00147,6.42383,44.96386a20.84092,20.84092,0,0,0,41.166.63257l6.68848,4.45923A18.77547,18.77547,0,0,0,272.874,369.90625l-16.22216-27.03613A62.3112,62.3112,0,0,0,264,313.37305V304h-.00977a7.98115,7.98115,0,0,0-.22949-1.94043L252.69727,257.8064a25.104,25.104,0,0,0-.46387-14.406l-.73047-2.19043A25.13773,25.13773,0,0,0,227.625,224a25.57656,25.57656,0,0,0-3.625.26367V216a24,24,0,0,0-48,0v16a24.02973,24.02973,0,0,0,21.82446,23.89673l-.60962,1.52417Zm60.15454,12.45581,5.738,22.95239-25.24805,5.04981-2.85546-7.13941a7.99831,7.99831,0,0,0,3.55664-2.05395Zm-3.30981,68.42407L211.83984,338.209l9.56568-19.13159,26.58618-5.31714A46.2603,46.2603,0,0,1,237.15625,343.27246ZM219.14746,392a4.87579,4.87579,0,0,1-4.80371-4.167L209.519,354.0625,224,356.9585v30.189A4.85793,4.85793,0,0,1,219.14746,392Zm40.00684-13.86133a2.77553,2.77553,0,0,1-3.91992,3.73633L240,371.71875V360a8.0035,8.0035,0,0,0,5.65723-2.34277c.2539-.25415.49145-.52.74072-.77784ZM236.32422,246.27246l.73047,2.19043a9.11818,9.11818,0,0,1-2.21582,9.38379L212.68652,280H185.15234a1.15249,1.15249,0,0,1-.32617-2.25781L205.457,271.6748a8.00026,8.00026,0,0,0,5.1709-4.7041l8.48242-21.207a9.16988,9.16988,0,0,1,17.21387.50879ZM192,232V216a8,8,0,0,1,16,0v16a8.06035,8.06035,0,0,1-.16846,1.61719,25.26266,25.26266,0,0,0-2.8955,4.67114A7.99305,7.99305,0,0,1,192,232Z"/><path d="M160.624,447.07031a63.49508,63.49508,0,0,1,27.80274-44.10351l-8.85352-13.32618A79.4864,79.4864,0,0,0,144,456a8.00042,8.00042,0,0,0,8,8q.33105,0,.66406-.02734a250.102,250.102,0,0,0,165.72559-82.22461l7.55664-8.39649a7.99986,7.99986,0,0,0-2.36817-12.50683l-32-16a7.99418,7.99418,0,0,0-6.624-.24219l-8,3.29394,6.0918,14.79493,4.63281-1.90723,19.34668,9.67285-.52832.58789A234.08228,234.08228,0,0,1,160.624,447.07031Z"/></g></svg>
