<svg id="Layer_5" enable-background="new 0 0 64 64" height="512" viewBox="0 0 64 64" width="512" xmlns="http://www.w3.org/2000/svg"><g><path d="m60 1h-56c-1.654 0-3 1.346-3 3v40c0 1.654 1.346 3 3 3h22.613l-.374 1.122-7.165 1.303c-2.335.425-4.438 1.679-5.919 3.532-1.389 1.736-2.155 3.917-2.155 6.141v3.902h42v-3.883c0-2.237-.773-4.429-2.19-6.186-1.479-1.836-3.573-3.081-5.895-3.503l-7.185-1.306-.374-1.122h22.644c1.654 0 3-1.346 3-3v-40c0-1.654-1.346-3-3-3zm-33.337 49.078 3.725 3.724-2.721 1.632-1.219-5.317zm1.481-1.348.577-1.73h6.528l.584 1.754-3.833 3.832zm11.376 1.75 5.038.916c1.849.336 3.516 1.327 4.708 2.805 1.118 1.388 1.734 3.133 1.734 4.916v1.883h-6v-6h-2v6h-22v-6h-2v6h-6v-1.902c0-1.771.609-3.509 1.717-4.893 1.18-1.476 2.854-2.475 4.714-2.813l5.048-.918 1.854 8.092 5.667-3.4 5.667 3.4zm-1.97-.358-1.217 5.311-2.721-1.632 3.719-3.719zm23.45-6.122c0 .551-.448 1-1 1h-56c-.552 0-1-.449-1-1v-29h58zm0-31h-58v-9c0-.551.448-1 1-1h56c.552 0 1 .449 1 1z"/><path d="m17 5h-10c-1.103 0-2 .897-2 2v2c0 1.103.897 2 2 2h10c1.103 0 2-.897 2-2v-2c0-1.103-.897-2-2-2zm-8 4h-2v-2h2zm4 0h-2v-2h2zm2 0v-2h2l.001 2z"/><path d="m37 11h22v-6h-22zm2-4h18v2h-18z"/><path d="m37 29h-10c-2.206 0-4 1.794-4 4s1.794 4 4 4v1c0 2.757 2.243 5 5 5s5-2.243 5-5v-1c2.206 0 4-1.794 4-4s-1.794-4-4-4zm-2 9c0 1.302-.839 2.402-2 2.816v-1.816h-2v1.816c-1.161-.414-2-1.514-2-2.816v-3h6zm2-3v-2h-10v2c-1.103 0-2-.897-2-2s.897-2 2-2h10c1.103 0 2 .897 2 2s-.897 2-2 2z"/><path d="m19.707 25.707 3.293-3.293 3.293 3.293 1.414-1.414-3.293-3.293 3.293-3.293-1.414-1.414-3.293 3.293-3.293-3.293-1.414 1.414 3.293 3.293-3.293 3.293z"/><path d="m37.707 25.707 3.293-3.293 3.293 3.293 1.414-1.414-3.293-3.293 3.293-3.293-1.414-1.414-3.293 3.293-3.293-3.293-1.414 1.414 3.293 3.293-3.293 3.293z"/></g></svg>