<?xml version="1.0"?>
<svg fill="#ffffff" xmlns="http://www.w3.org/2000/svg" viewBox="0 0 512 512" width="42" height="42"><g id="Outline"><path d="M474.861,201.413l-59.8-53.821L400,94.879V56a40.045,40.045,0,0,0-40-40H304a24,24,0,0,0-4.86,47.505L296.365,77.38l-7.52,15.042a8,8,0,0,0,3.577,10.733L304,108.944V120a16.019,16.019,0,0,0,16,16h24V120H320V104a8,8,0,0,0-4.422-7.155l-8.845-4.423,4.422-8.844a7.989,7.989,0,0,0,.69-2.009L315.358,64h40.8l28.594,35.743L397.394,144h-76.41L261.79,129.2,223.663,40.239A39.95,39.95,0,0,0,186.9,16H24a8,8,0,0,0-8,8V488a8,8,0,0,0,8,8H184a8,8,0,0,0,7.155-4.422l7.863-15.726,45.882-76.47L261.59,397h0l25.469-3.64c18.409-2.629,34.3-7.2,48.585-13.981a133.3,133.3,0,0,0,34.086-23.165c2.118-1.966,4.206-4.04,6.268-6.195V392a24.027,24.027,0,0,0,24,24h24a24.027,24.027,0,0,0,24-24V323.314l29.3-29.3a63.841,63.841,0,0,0-2.436-92.6ZM382.094,315.7,328,268.37v-6.241l62.432,37.46C389.7,301.178,383.018,314.094,382.094,315.7Zm40.072-65.248,12.771,7.3-18.762,18.761A218.537,218.537,0,0,0,422.166,250.454Zm2.17-17.188a227.458,227.458,0,0,0-2.4-57.955l28.8,25.917c-8.429,13.727-15.9,25.467-21.988,34.559ZM384,73.194,366.247,51A8,8,0,0,0,360,48H304a8,8,0,0,1,0-16h56a24.028,24.028,0,0,1,24,24ZM320,160h82.086c4.492,16.2,15.511,67.56-5.457,124.648L328,243.471V216a8,8,0,0,0-4.923-7.385L278.712,190.13l9.46-37.841,29.888,7.472A7.977,7.977,0,0,0,320,160ZM208.957,46.542l39.69,92.609a8,8,0,0,0,5.412,4.61l18.59,4.648-8.874,35.5-33.431-13.929L191.534,61.309a8,8,0,0,0-5-4.9L166.7,49.8l-1.483-5.933L162.246,32H186.9A23.969,23.969,0,0,1,208.957,46.542ZM32,32H68.687L50.343,50.343,61.657,61.657,91.313,32h54.441L152,56.985v27.7l-21.657,21.656,11.314,11.314L156.5,102.81l10.53,31.591L137.753,171a8,8,0,0,0-1.514,6.938l6.961,27.847L66.081,290.619A8,8,0,0,0,64,296v24H80V299.093l77.919-85.712a8,8,0,0,0,1.842-7.321L152.722,177.9,182.247,141a8,8,0,0,0,1.342-7.528L168,86.7V67.1l9.776,3.259,38.69,108.333a8,8,0,0,0,4.457,4.693L312,221.333v37.724l-66.85-33.421a67.838,67.838,0,0,0-88.53,25.778l-41.957,69.932L69.47,336.411A8,8,0,0,0,64,344v20.687L50.343,378.343l11.314,11.314,11.362-11.363L88,388.281v40.406L66.343,450.343l11.314,11.314L96,443.313l8,8V480H32ZM287.493,330.373l7.775-1.944,54.067,24.029a115.955,115.955,0,0,1-16.377,10.388Zm-76.181-57.655a8,8,0,0,0-9.333,2.014l-51.93,59.349-18.744-9.373,39.036-65.063a51.852,51.852,0,0,1,67.651-19.7l.664.332-14,38.51ZM80,349.766l39.386-13.129L140.317,347.1l-8.6,12.9H80ZM253.062,247.48l16.52,8.259-4.153,41.58-26.162-11.891Zm27.749,56.829L284.9,263.4l8.855,4.427-4.484,40.331ZM179.056,480H120V469.766l38.553-12.851,23.306,17.479Zm59.814-95.92a8,8,0,0,0-5.73,3.8L189.7,460.278l-20.066-15.05,30.368-78.955a32.01,32.01,0,0,1,18.768-18.522l-5.548-15.007a48.014,48.014,0,0,0-28.153,27.784L153.888,441.6,120,452.9V448a8,8,0,0,0-2.343-5.657L104,428.687V384a8,8,0,0,0-3.563-6.656L98.422,376H136a8,8,0,0,0,6.656-3.562l15.709-23.564L210.1,289.745l15.8,7.185.006,0L271.815,317.8l-36.6,9.153a8,8,0,0,0-5.412,10.912L249,382.635Zm45.928-6.559-19.4,2.772-17.185-40.1,18.889-4.722,48.647,34.746A165.181,165.181,0,0,1,284.8,377.521Zm77.811-36.673L304.6,315.067l4.4-39.621,6.5,3.25,16.453,14.4,41.133,35.991A148.578,148.578,0,0,1,362.609,340.848ZM432,392a8.009,8.009,0,0,1-8,8H400a8.009,8.009,0,0,1-8-8V338.606l40,11.429V392Zm44.359-124.822A47.618,47.618,0,0,1,465.983,282.7l-31.64,31.64A8,8,0,0,0,432,320v13.394l-24-6.857V307.313l45.657-45.656a8,8,0,0,0-1.688-12.6l-9.294-5.31c5.716-8.565,12.461-19.153,20.152-31.635l1.332,1.2a47.843,47.843,0,0,1,12.2,53.871Z"/><path d="M101.657,165.657a8,8,0,0,0,1-10.095l-16-24-13.312,8.876L85.706,158.98,50.343,194.343l11.314,11.314Z"/><rect x="57.373" y="224" width="45.255" height="16" transform="translate(-140.617 124.52) rotate(-45)"/><rect x="60.686" y="88" width="22.627" height="16" transform="translate(-46.794 79.029) rotate(-45)"/></g></svg>
